<svg xmlns="http://www.w3.org/2000/svg" viewBox="0 0 512 512"><title>Suit</title><g id="Suit"><path d="M398.4741,94.9707a5.5018,5.5018,0,0,0-5.249-5.0137L317.8335,68.2815a5.498,5.498,0,0,0-5.5527-.6775c-12.6353,5.5234-33.6768,8.8208-56.2852,8.8208-22.3457,0-43.2519-3.2393-55.9253-8.665a5.4918,5.4918,0,0,0-5.1653.4475L118.961,89.948a5.4945,5.4945,0,0,0-5.4351,5.0227L86.3584,407.5073a5.5,5.5,0,0,0,4.2544,5.8379l18.5151,4.231a5.5,5.5,0,0,0,2.45-10.7237l-13.8462-3.164L124.1385,99.9076l70.05-20.0534,55.6808,200.419L175.6934,169.01l12.9155-27.6553a5.5,5.5,0,0,0-3.26-7.55l-21.748-7.1748,21.3867-24.4663a5.5,5.5,0,1,0-8.2822-7.2393l-26.8447,30.71a5.5,5.5,0,0,0,2.4179,8.8427l23.7437,7.8335L164.4175,167.16a5.499,5.499,0,0,0,.4072,5.3779l85.584,128.3748V411.2251c0,.9888.0558,1.968.14,2.9413a22.6138,22.6138,0,0,1-27.7238,19.0475l-82.459-19.88,33.3008-111.2251a5.5048,5.5048,0,0,0,.0825-2.8472L150.2847,200.37a5.5,5.5,0,0,0-10.7032,2.5391l23.1241,97.4565-34.5435,115.376a5.5,5.5,0,0,0,3.98,6.9243l88.1045,21.2412a33.8872,33.8872,0,0,0,7.9487.95,33.6943,33.6943,0,0,0,27.8811-14.9428,33.5294,33.5294,0,0,0,35.83,13.9931L380.01,422.666a5.4993,5.4993,0,0,0,4.0483-6.6738L355.3179,300.4229,375.68,202.7144a5.5,5.5,0,0,0-10.7686-2.2442L344.293,299.4087a5.4932,5.4932,0,0,0,.0468,2.4492L372.0469,413.271l-82.7188,19.9429a22.613,22.613,0,0,1-27.7237-19.0475c.0839-.9733.14-1.9525.14-2.9413V368.6138a5.4758,5.4758,0,0,0-.3354-1.8765V301.0017L347.1372,172.54a5.5,5.5,0,0,0,.4087-5.38l-11.604-24.8487,23.7436-7.8335a5.5,5.5,0,0,0,2.418-8.8427L334.96,94.583a5.5,5.5,0,1,0-8.2822,7.2393L348.3633,126.63l-21.7481,7.1748a5.5,5.5,0,0,0-3.26,7.55l12.914,27.6538L262.1784,280.0317,318.2855,79.8564l69.5718,20.0024,26.4108,303.83-13.8487,3.164a5.5,5.5,0,1,0,2.45,10.7237l18.5176-4.231a5.5,5.5,0,0,0,4.2544-5.8379ZM256.01,261.2822,206.0471,81.4451c13.5377,3.8383,31.0747,5.98,49.9485,5.98,18.8486,0,36.8408-2.2451,50.4683-6.15Z"/></g></svg>